<?xml version="1.0" encoding="UTF-8" standalone="no"?>
<svg
   viewBox="0 0 512 512"
   width="512"
   height="512"
   version="1.1"
   id="svg35"
   sodipodi:docname="ic_launcher_source_square.svg"
   inkscape:version="1.4.2 (f4327f4, 2025-05-13)"
   xmlns:inkscape="http://www.inkscape.org/namespaces/inkscape"
   xmlns:sodipodi="http://sodipodi.sourceforge.net/DTD/sodipodi-0.dtd"
   xmlns="http://www.w3.org/2000/svg"
   xmlns:svg="http://www.w3.org/2000/svg">
  <sodipodi:namedview
     id="namedview35"
     pagecolor="#ffffff"
     bordercolor="#000000"
     borderopacity="0.25"
     inkscape:showpageshadow="2"
     inkscape:pageopacity="0.0"
     inkscape:pagecheckerboard="0"
     inkscape:deskcolor="#d1d1d1"
     inkscape:zoom="0.6063378"
     inkscape:cx="192.96174"
     inkscape:cy="384.27424"
     inkscape:window-width="1280"
     inkscape:window-height="657"
     inkscape:window-x="-8"
     inkscape:window-y="-8"
     inkscape:window-maximized="1"
     inkscape:current-layer="svg35" />
  <defs
     id="defs1">
    <filter
       id="bs"
       x="0"
       y="0"
       width="1"
       height="1">
      <feDropShadow
         dx="2"
         dy="3"
         stdDeviation="6"
         flood-color="#000000"
         flood-opacity="0.3" />
    </filter>
  </defs>
  <!-- Ground -->
  <line
     x1="22"
     y1="490"
     x2="480"
     y2="490"
     stroke="#1e3050"
     stroke-width="3"
     id="line1" />
  <ellipse
     cx="270"
     cy="496"
     rx="208"
     ry="7"
     fill="#000000"
     opacity="0.18"
     id="ellipse2" />
  <!-- Big wheel spokes (12) -->
  <line
     x1="195.0"
     y1="360.0"
     x2="309.0"
     y2="360.0"
     stroke="#B87510"
     stroke-width="4.5"
     stroke-linecap="round"
     id="line2" />
  <line
     x1="193.7"
     y1="365.0"
     x2="292.4"
     y2="422.0"
     stroke="#B87510"
     stroke-width="4.5"
     stroke-linecap="round"
     id="line3" />
  <line
     x1="190.0"
     y1="368.7"
     x2="247.0"
     y2="467.4"
     stroke="#B87510"
     stroke-width="4.5"
     stroke-linecap="round"
     id="line4" />
  <line
     x1="185.0"
     y1="370.0"
     x2="185.0"
     y2="484.0"
     stroke="#B87510"
     stroke-width="4.5"
     stroke-linecap="round"
     id="line5" />
  <line
     x1="180.0"
     y1="368.7"
     x2="123.0"
     y2="467.4"
     stroke="#B87510"
     stroke-width="4.5"
     stroke-linecap="round"
     id="line6" />
  <line
     x1="176.3"
     y1="365.0"
     x2="77.6"
     y2="422.0"
     stroke="#B87510"
     stroke-width="4.5"
     stroke-linecap="round"
     id="line7" />
  <line
     x1="175.0"
     y1="360.0"
     x2="61.0"
     y2="360.0"
     stroke="#B87510"
     stroke-width="4.5"
     stroke-linecap="round"
     id="line8" />
  <line
     x1="176.3"
     y1="355.0"
     x2="77.6"
     y2="298.0"
     stroke="#B87510"
     stroke-width="4.5"
     stroke-linecap="round"
     id="line9" />
  <line
     x1="180.0"
     y1="351.3"
     x2="123.0"
     y2="252.6"
     stroke="#B87510"
     stroke-width="4.5"
     stroke-linecap="round"
     id="line10" />
  <line
     x1="185.0"
     y1="350.0"
     x2="185.0"
     y2="236.0"
     stroke="#B87510"
     stroke-width="4.5"
     stroke-linecap="round"
     id="line11" />
  <line
     x1="190.0"
     y1="351.3"
     x2="247.0"
     y2="252.6"
     stroke="#B87510"
     stroke-width="4.5"
     stroke-linecap="round"
     id="line12" />
  <line
     x1="193.7"
     y1="355.0"
     x2="292.4"
     y2="298.0"
     stroke="#B87510"
     stroke-width="4.5"
     stroke-linecap="round"
     id="line13" />
  <!-- Big wheel rim + hub -->
  <circle
     cx="185"
     cy="360"
     r="130"
     fill="none"
     stroke="#F5A623"
     stroke-width="14"
     id="circle13"
     style="stroke:#2c2b28;stroke-opacity:1" />
  <circle
     cx="185"
     cy="360"
     r="14"
     fill="#F5A623"
     id="circle14" />
  <circle
     cx="185"
     cy="360"
     r="7"
     fill="#0E1A2B"
     id="circle15" />
  <!-- Small wheel spokes (8) -->
  <line
     x1="397.0"
     y1="430.0"
     x2="444.0"
     y2="430.0"
     stroke="#B87510"
     stroke-width="3.5"
     stroke-linecap="round"
     id="line15" />
  <line
     x1="394.9"
     y1="434.9"
     x2="428.2"
     y2="468.2"
     stroke="#B87510"
     stroke-width="3.5"
     stroke-linecap="round"
     id="line16" />
  <line
     x1="390.0"
     y1="437.0"
     x2="390.0"
     y2="484.0"
     stroke="#B87510"
     stroke-width="3.5"
     stroke-linecap="round"
     id="line17" />
  <line
     x1="385.1"
     y1="434.9"
     x2="351.8"
     y2="468.2"
     stroke="#B87510"
     stroke-width="3.5"
     stroke-linecap="round"
     id="line18" />
  <line
     x1="383.0"
     y1="430.0"
     x2="336.0"
     y2="430.0"
     stroke="#B87510"
     stroke-width="3.5"
     stroke-linecap="round"
     id="line19" />
  <line
     x1="385.1"
     y1="425.1"
     x2="351.8"
     y2="391.8"
     stroke="#B87510"
     stroke-width="3.5"
     stroke-linecap="round"
     id="line20" />
  <line
     x1="390.0"
     y1="423.0"
     x2="390.0"
     y2="376.0"
     stroke="#B87510"
     stroke-width="3.5"
     stroke-linecap="round"
     id="line21" />
  <line
     x1="394.9"
     y1="425.1"
     x2="428.2"
     y2="391.8"
     stroke="#B87510"
     stroke-width="3.5"
     stroke-linecap="round"
     id="line22" />
  <!-- Small wheel rim + hub -->
  <circle
     cx="390"
     cy="430"
     r="60"
     fill="none"
     stroke="#F5A623"
     stroke-width="10"
     id="circle22"
     style="stroke:#261902;stroke-opacity:1" />
  <circle
     cx="390"
     cy="430"
     r="9"
     fill="#F5A623"
     id="circle23" />
  <circle
     cx="390"
     cy="430"
     r="4.5"
     fill="#0E1A2B"
     id="circle24" />
  <!-- Frame -->
  <path
     d="M 390,430 C 365,315 333,303 268,248"
     fill="none"
     stroke="#F5A623"
     stroke-width="11"
     stroke-linecap="round"
     id="path24" />
  <line
     x1="268"
     y1="248"
     x2="185"
     y2="332"
     stroke="#F5A623"
     stroke-width="11"
     stroke-linecap="round"
     id="line24" />
  <line
     x1="268"
     y1="248"
     x2="260"
     y2="222"
     stroke="#F5A623"
     stroke-width="9"
     stroke-linecap="round"
     id="line25" />
  <line
     x1="238.17361"
     y1="218.92043"
     x2="298.62665"
     y2="234.56271"
     stroke="#f5a623"
     stroke-width="15.4214"
     stroke-linecap="round"
     id="line26" />
  <line
     x1="185.07722"
     y1="345.94135"
     x2="188.92278"
     y2="150.07722"
     stroke="#f5a623"
     stroke-width="9"
     stroke-linecap="round"
     id="line27" />
  <line
     x1="168.56935"
     y1="172.93404"
     x2="205.76303"
     y2="125.89977"
     stroke="#f5a623"
     stroke-width="9"
     stroke-linecap="round"
     id="line28" />
  <!-- Pedal cranks directly on big wheel axle -->
  <line
     x1="185"
     y1="360"
     x2="214.7"
     y2="386.8"
     stroke="#F5A623"
     stroke-width="8"
     stroke-linecap="round"
     id="line29"
     style="stroke:#251802;stroke-opacity:1" />
  <line
     x1="224.8"
     y1="375.6"
     x2="204.7"
     y2="397.9"
     stroke="#F5A623"
     stroke-width="7"
     stroke-linecap="round"
     id="line30"
     style="stroke:#412903;stroke-opacity:1" />
  <line
     x1="185"
     y1="360"
     x2="155.3"
     y2="333.2"
     stroke="#F5A623"
     stroke-width="8"
     stroke-linecap="round"
     id="line31"
     style="stroke:#251802;stroke-opacity:1" />
  <line
     x1="145.2"
     y1="344.4"
     x2="165.3"
     y2="322.1"
     stroke="#F5A623"
     stroke-width="7"
     stroke-linecap="round"
     id="line32"
     style="stroke:#412903;stroke-opacity:1" />
  <!-- Speech bubble -->
  <rect
     x="257.34943"
     y="102.61639"
     width="31.165751"
     height="43.598511"
     rx="6.2331505"
     fill="#0E1A2B"
     id="rect33"
     style="fill:#333333;stroke-width:2.91416" />
  <path
     d="M 292.01372,102.61639 332.52918,72.642419 V 176.18887 l -40.51546,-29.97396 z"
     fill="#0E1A2B"
     id="path33"
     style="fill:#333333;stroke-width:2.91416" />
  <path
     d="m 362.61736,98.327977 q 31.16574,28.611523 0,57.223053"
     fill="none"
     stroke="#0e1a2b"
     stroke-width="13.1138"
     stroke-linecap="round"
     id="path34"
     style="fill:#333333" />
  <path
     d="m 397.57987,82.274835 q 31.16575,45.505945 0,91.011885"
     fill="none"
     stroke="#0e1a2b"
     stroke-width="11.6567"
     stroke-linecap="round"
     id="path35"
     style="fill:#333333" />
  <path
     style="fill:#1818e7;stroke:#2e24fe;stroke-width:4.638;stroke-dasharray:none;stroke-opacity:1;fill-opacity:1"
     id="path40"
     d="m 235.29216,92.217673 c -1.58206,-4.71571 -2.05964,-9.68604 -1.64933,-14.624313 0.13498,-1.624549 0.42562,-3.233347 0.63843,-4.85002 1.4065,-6.923993 3.73764,-13.825139 7.74316,-19.779323 2.99699,-4.454988 4.1914,-5.198727 8.1225,-9.002989 8.70399,-7.095406 19.04434,-12.385409 30.36449,-14.121423 2.07596,-0.318361 4.18717,-0.358059 6.28075,-0.53709 6.97493,-0.04428 14.0331,0.804261 20.45952,3.578369 1.25868,0.543338 2.53942,1.082957 3.66443,1.85477 0.91539,0.628003 -2.019,-0.945654 -3.02848,-1.418481 4.74674,3.407067 8.2277,8.060519 11.14166,12.980357 0.90274,1.771012 1.82174,3.598356 2.17821,5.561836 0.0348,0.194956 0.0527,0.636738 0.06,0.771215 9.0819,3.512051 7.25099,5.447748 6.61049,1.505143 -0.23619,-1.453955 -0.18222,-1.700791 -0.2217,-3.27752 0.42467,-7.355134 4.17399,-13.855457 8.05174,-19.990652 4.73528,-6.461966 10.99576,-11.608019 18.66905,-14.450626 1.47307,-0.545706 3.00546,-0.926408 4.50818,-1.389612 9.83709,-2.204119 19.94879,-0.7156 29.35499,2.568183 1.91257,0.667702 3.75773,1.505177 5.63659,2.257765 1.68168,0.837188 3.37176,1.658637 5.04503,2.511562 0.48017,0.244754 -1.87588,-1.030557 -1.46511,-0.686751 1.21908,1.02034 2.65731,1.768399 3.91807,2.739809 3.45037,2.658513 6.19506,5.731125 8.89782,9.074583 3.48079,4.659379 5.52474,9.999863 6.49766,15.634321 0.067,1.702903 0.59604,3.586491 0.1575,5.284886 -0.18538,0.50479 -0.50961,0.948645 -0.77328,1.422327 -1.39683,2.54026 0.0749,0.382454 7.10072,3.614021 -0.1542,-1.439751 0.0686,-2.705175 0.63117,-4.03513 1.26632,-3.061404 3.74713,-5.082741 6.41803,-6.966556 3.90747,-2.281555 8.49412,-3.327782 13.04972,-3.17327 1.007,0.03415 2.0051,0.195949 3.00765,0.293922 2.59977,0.647031 3.63801,0.792787 6.11761,1.87222 0.99857,0.434702 3.82032,2.067535 2.90486,1.48533 -1.12496,-0.715433 -2.20007,-2.038468 -3.53565,-1.886491 -1.14162,0.129905 1.89534,1.267477 2.78716,1.971661 0.91922,0.725821 1.75904,1.541658 2.63854,2.312486 5.03099,4.879577 8.9085,10.70923 11.53345,17.122557 0.53062,1.296401 0.94756,2.634007 1.42133,3.95101 2.74587,8.104211 2.16767,16.006129 0.6259,24.248081 -1.59716,6.82312 -3.93301,13.47128 -7.54716,19.53631 -2.06805,3.5461 -4.70606,6.55055 -8.27996,8.69298 -1.83328,1.1133 -3.97202,1.46159 -5.94461,2.23889 -0.82916,0.31897 -1.70239,0.46021 -2.58902,0.49501 -4.29377,-0.55145 3.87818,5.84189 6.38655,3.77467 2.82816,-1.16388 5.91253,-1.60146 8.93382,-2.01701 3.34203,-0.17722 6.92202,-0.32249 10.13428,0.80728 0.80101,0.28172 3.02474,1.51848 2.29683,1.08862 -1.3908,-0.82131 -2.85995,-1.51041 -4.28993,-2.2656 4.35495,3.01348 7.13498,7.52858 8.41414,12.53856 0.32739,1.2823 0.48813,2.5994 0.7322,3.89911 1.00309,7.65495 -0.55186,15.24246 -3.76157,22.25509 -0.62968,1.3757 -1.38903,2.6919 -2.08355,4.03784 -2.80569,4.85266 -6.20831,9.36987 -10.51416,13.07328 -2.74264,2.3589 -3.93584,2.99209 -6.98359,4.9803 -6.54786,3.63268 -13.56221,6.57329 -20.90603,8.30648 -1.47706,0.34859 -2.97656,0.6006 -4.46484,0.9009 -8.79209,1.58004 -17.69432,1.67728 -26.57012,0.9288 -7.49393,-0.58511 -14.89854,-2.06149 -22.13282,-4.01875 -4.1387,-0.52679 -16.07608,-7.13713 -2.98151,0.0672 -0.96982,-0.55831 -1.70055,-1.37878 -2.38171,-2.23296 -0.52998,-0.71338 -0.69509,-1.56201 -0.90357,-2.39619 -0.20306,-0.51357 -0.54087,-0.93586 -0.72642,-1.45703 -0.13524,-0.29115 -0.14364,-0.60039 -0.14366,-0.91469 -2.4e-4,-0.25579 -0.006,-0.51108 3e-5,-0.7671 0.12513,-3.26461 2.73805,0.3661 -7.26128,-4.53283 -0.0468,-0.023 -0.96519,0.49355 -1.08901,0.54041 -1.81319,0.90949 -3.61219,1.86421 -5.46108,2.70852 -2.46566,1.22578 -4.99996,2.3055 -7.49601,3.47191 -1.80021,0.71688 -3.60416,1.42755 -5.51944,1.79035 -2.99549,0.59472 -5.7777,-0.0582 -8.57695,-1.07895 -4.03144,-1.66723 -7.95695,-3.55873 -11.80067,-5.59814 -3.51127,-2.05737 -7.25917,-3.64316 -11.01872,-5.20543 -2.49685,-1.27114 -5.2495,-1.84147 -7.86811,-2.79281 -1.54885,-0.66087 -3.25885,-0.55648 -4.87147,-0.91021 -1.59276,-0.49177 -3.14227,-0.26703 -4.76202,-0.10247 -3.09016,0.65545 -5.60775,2.48422 -8.08349,4.29455 -3.94089,2.94542 -7.38237,6.4226 -10.7689,9.93924 -3.11863,3.11484 -6.45845,6.00069 -9.85661,8.82133 -2.21706,1.63083 -4.39291,3.37802 -6.80732,4.73507 -1.11014,0.64984 -2.14498,1.40544 -3.13547,2.21725 -0.77361,0.35792 -1.34689,0.92714 -2.02568,1.40868 -0.52462,0.31173 -0.94359,0.36366 -1.38359,0.82158 -0.56988,0.18493 -0.89281,0.62263 -1.36151,0.95571 -0.49964,0.35969 -0.96143,0.77149 -1.44212,1.15712 -0.30561,0.0203 -0.60607,0.0602 -0.91323,0.0519 -0.14644,-0.0244 -0.12215,-0.0673 -0.0442,-0.17502 2.33103,1.39496 4.49638,3.09329 6.9931,4.18488 0.32198,0.14077 0.30624,-0.61808 0.46862,-0.92256 0.24545,-0.46022 0.50402,-0.91373 0.75476,-1.37126 1.21578,-2.21859 2.47199,-4.41425 3.71761,-6.61724 3.02396,-5.24556 5.42715,-10.78505 7.65588,-16.38326 1.456,-3.73407 2.40626,-7.62092 3.59953,-11.43692 0.43643,-1.25069 0.73682,-2.55716 0.84371,-3.87346 0.028,-0.8397 0.0124,-1.67956 0.0306,-2.51944 -0.004,-0.5694 -0.0167,-1.13891 -0.007,-1.70832 -0.007,-0.52736 -0.003,-1.05465 -0.002,-1.58198 0.0453,-4.36957 -6.57875,-5.57318 -10.38873,-5.43688 -4.61597,0.30593 -9.20855,0.92134 -13.8001,1.47266 -5.6852,0.62495 -11.43874,0.52469 -17.11332,-0.12858 -0.87786,-0.19515 -1.7637,-0.35898 -2.63353,-0.58545 -1.329,-0.34603 -3.51041,-1.057 -4.79037,-1.58578 -0.73504,-0.30365 -2.83744,-1.41874 -2.16002,-1.0077 13.06312,7.92662 2.8859,1.37088 2.81469,1.32451 -3.999,-2.93977 -6.7772,-6.93754 -9.15468,-11.15465 -2.43536,-4.92997 -3.41061,-10.31752 -4.2882,-15.66967 -0.72132,-4.78336 -0.71223,-9.65551 0.0187,-14.43281 0.74905,-3.89399 2.26523,-7.52631 4.51311,-10.81549 2.02143,-2.87788 4.70853,-4.95433 8.03125,-6.20327 2.82234,-0.76871 5.78579,-1.17861 8.69248,-0.70798 1.25046,0.19248 2.47449,0.54792 3.73797,0.61443 0.71766,0.062 1.43666,0.0609 2.15613,0.0687 0.5451,-0.37453 0.83266,-0.8343 0.93932,-1.46232 0.13073,-0.66945 -0.002,-1.2338 -0.29749,-1.83339 -0.4604,-1.096563 -1.17805,-2.047734 -1.92776,-2.972688 -1.00313,-1.351898 -2.29379,-2.566379 -2.99442,-4.113211 -0.61749,-1.363283 -0.6803,-2.272324 -0.9562,-3.760987 0,0 -6.91685,-3.298773 -6.91685,-3.298773 v 0 c 0.16189,1.338548 0.23436,2.637425 0.68844,3.923166 0.56492,1.599559 1.82442,2.807697 2.77605,4.180673 0.71189,0.839803 1.50417,1.745232 1.87294,2.765406 0.28587,0.531443 0.59764,0.771569 0.48202,1.404751 -0.0103,0.160647 -0.005,0.646084 -0.30199,0.480069 -0.68787,4.48e-4 -1.37626,-0.03121 -2.06098,-0.09527 -1.21197,-0.1772 -2.41627,-0.407128 -3.63371,-0.554557 -2.9579,-0.193823 -5.95693,0.277553 -8.77984,1.124151 -3.39554,1.41444 -6.13245,3.63173 -8.20051,6.63286 -2.32286,3.37684 -3.86564,7.12693 -4.63228,11.1308 -0.72362,4.86661 -0.69476,9.82653 0.0103,14.69796 0.86778,5.40552 1.84057,10.8356 4.13777,15.8739 2.31012,4.278 5.03057,8.33768 8.91293,11.4433 6.14957,4.14075 12.55347,7.83307 20.00822,8.96816 5.72437,0.58127 11.50089,0.61028 17.22836,0.003 4.65391,-0.50002 9.31245,-1.16324 14.00066,-1.21022 0.49453,0.0327 0.993,0.0294 1.48359,0.0982 0.36496,0.0512 1.37901,0.46067 1.07327,0.26049 -2.03387,-1.33166 -4.25021,-2.38414 -6.30465,-3.68568 -0.12688,-0.0803 0.3294,-0.10461 0.45398,-0.0209 0.0117,0.007 -0.007,0.64272 -0.007,0.65109 8.3e-4,0.52772 0.005,1.05533 -4.3e-4,1.58308 0.0118,0.57336 0.004,1.14671 0.0138,1.72012 0.038,0.82618 0.0478,1.65361 0.0229,2.4803 -0.0563,1.29788 -0.20741,2.58209 -0.56402,3.84018 -0.93199,3.88562 -1.83382,7.79449 -3.23586,11.55065 -2.05426,5.62283 -4.48988,11.12149 -7.5506,16.30362 -1.58776,2.6024 -3.15443,5.22843 -4.90001,7.73567 -0.18652,0.2679 -0.81335,0.56792 -0.57477,0.79354 1.96028,1.85376 4.35095,3.22312 6.52642,4.83468 0.0842,-0.0983 0.15025,-0.15324 0.28478,-0.17332 0.41829,-0.0994 0.83699,-0.20976 1.17478,-0.48525 0.43927,-0.40399 0.89672,-0.78584 1.39019,-1.12657 0.46438,-0.36508 0.9266,-0.70798 1.42631,-1.02688 0.37764,-0.30669 0.98534,-0.33617 1.30887,-0.75612 0.64966,-0.51181 1.29455,-1.01215 2.00406,-1.44764 0.99134,-0.75603 1.91449,-1.57915 3.02415,-2.17639 2.28548,-1.54939 4.39409,-3.34234 6.59297,-5.00209 3.35755,-2.88942 6.74674,-5.7466 9.80965,-8.93903 3.36259,-3.48492 6.75909,-6.95723 10.74562,-9.78822 2.48981,-1.70686 5.06349,-3.37311 8.16224,-3.75258 1.5684,-0.14235 3.07738,-0.16444 4.61238,0.26935 1.60997,0.22869 3.2373,0.36999 4.75985,0.98098 2.59471,0.8339 5.2417,1.51724 7.69589,2.72179 3.72122,1.51597 7.36914,3.17907 10.85181,5.169 3.89305,2.03735 7.86238,3.95191 11.95974,5.57365 2.96677,0.98428 5.89363,1.49526 9.0176,0.8674 1.94058,-0.42996 3.7957,-1.15637 5.59589,-1.97512 2.442,-1.20848 4.9589,-2.26699 7.37726,-3.52203 1.90264,-0.83314 3.79059,-1.69581 5.71086,-2.49021 0.0411,-0.0156 0.49123,-0.20696 0.60983,-0.18969 0.0689,0.009 0.2357,0.14474 0.17538,0.11075 -2.25034,-1.26782 -8.8618,-2.91912 -6.563,-4.10213 0.034,-0.0175 0.002,0.0748 0.003,0.11232 0.003,0.25969 -0.007,0.51825 -0.011,0.7776 0.009,0.37769 -0.009,0.7678 0.0526,1.13614 0.17089,0.55932 0.31073,1.10921 0.74806,1.53226 0.4921,0.73105 0.27771,1.81866 0.87418,2.54299 0.55277,1.02195 1.42683,1.88467 2.34181,2.60985 2.56461,1.42918 5.10857,2.89386 7.69382,4.28753 2.68259,1.44614 5.85551,2.00453 8.74191,2.89706 7.18966,1.79384 14.52323,3.1385 21.92904,3.7091 8.90627,0.66798 17.82985,0.50666 26.63485,-1.13099 1.49782,-0.31246 3.00702,-0.57734 4.49346,-0.93736 7.39593,-1.7913 14.46343,-4.79648 21.06144,-8.4692 3.10311,-2.02361 4.30415,-2.6579 7.09494,-5.06312 4.36341,-3.76059 7.74082,-8.38522 10.53668,-13.32981 0.69386,-1.36922 1.44826,-2.71103 2.08157,-4.10765 3.2168,-7.09387 4.89302,-14.74349 4.10653,-22.49933 -0.19929,-1.31246 -0.31862,-2.63874 -0.59788,-3.93738 -1.08837,-5.06127 -3.72062,-9.72833 -7.95683,-12.91209 -1.15537,-0.65997 -7.77472,-4.95266 -11.15773,-5.97953 -3.30989,-1.00467 -6.91291,-0.80757 -10.31527,-0.60636 -3.21525,0.41453 -6.66685,0.70926 -9.60169,2.13262 -2.68058,2.41317 4.24276,5.56571 7.18907,5.00499 0.92589,-0.11906 1.82435,-0.35963 2.6794,-0.72898 1.9357,-0.80536 4.00506,-1.33217 5.75904,-2.51771 3.6072,-2.31352 6.26701,-5.40026 8.27228,-9.12855 3.45815,-6.2548 5.6425,-13.03607 7.29783,-19.936956 1.64671,-8.589363 2.35847,-16.064876 -0.44554,-24.559301 -0.46701,-1.335682 -0.87531,-2.692107 -1.40104,-4.007048 -2.56904,-6.425459 -6.34305,-12.302614 -11.2267,-17.307008 -5.15125,-4.730862 -7.38647,-5.730922 -14.50056,-9.617928 -2.88103,-1.574138 -5.99205,-2.624337 -9.24664,-3.174246 -1.02206,-0.0737 -2.04139,-0.208325 -3.06619,-0.221088 -4.70528,-0.05859 -9.43658,1.05245 -13.47184,3.410945 -2.8402,1.920081 -5.4287,4.034944 -6.89795,7.166005 -0.66487,1.378562 -1.04995,2.72066 -0.92463,4.25495 10.71364,6.142785 6.21134,6.648921 7.33518,3.931806 0.23896,-0.540398 0.57995,-1.029746 0.77607,-1.58805 0.55259,-1.844699 -0.2619,-3.908508 -0.34095,-5.765997 -1.15963,-5.793463 -3.30437,-11.320915 -6.83705,-16.172282 -2.23832,-2.795263 -2.89493,-3.80259 -5.5465,-6.32612 -6.48551,-6.17236 -14.67723,-10.282833 -22.76801,-14.111321 -1.8678,-0.719953 -3.70426,-1.521855 -5.60339,-2.159859 -9.61222,-3.229195 -19.92925,-4.684947 -29.94293,-2.4815 -1.51226,0.488115 -3.05569,0.893175 -4.5368,1.464345 -7.74339,2.986164 -14.05796,8.2658 -18.92829,14.768014 -3.99164,6.162092 -7.88017,12.664144 -8.86029,20.010362 -0.17326,3.679678 -0.52601,11.347062 7.7785,9.085956 0.15837,-0.371148 0.0598,-0.792825 0.0235,-1.177312 -0.37884,-2.135315 -1.48402,-4.062545 -2.45641,-5.988148 -3.03582,-5.032054 -6.6088,-9.839954 -11.39412,-13.443098 -3.15614,-1.861952 -8.84478,-5.593448 -13.05159,-7.283054 -6.40442,-2.572241 -13.39022,-3.216937 -20.2575,-3.060475 -2.08623,0.218151 -4.19149,0.30508 -6.25871,0.654453 -11.38802,1.924625 -21.7345,7.332701 -30.59557,14.393665 -3.9709,3.72675 -5.38605,4.635798 -8.41072,9.054557 -4.09111,5.976771 -6.41384,12.98287 -7.99585,19.923653 -1.07808,6.568403 -1.78651,12.729969 -0.0713,19.262151 z" />
</svg>
